<?xml version="1.0" standalone="no"?>
<!DOCTYPE svg PUBLIC "-//W3C//DTD SVG 20010904//EN"
 "http://www.w3.org/TR/2001/REC-SVG-20010904/DTD/svg10.dtd">
<svg version="1.0" xmlns="http://www.w3.org/2000/svg"
 width="400.000000pt" height="400.000000pt" viewBox="0 0 400.000000 400.000000"
 preserveAspectRatio="xMidYMid meet">

<g transform="translate(0.000000,400.000000) scale(0.100000,-0.100000)"
fill="#000000" stroke="none">
<path d="M0 2000 l0 -2000 2000 0 2000 0 0 2000 0 2000 -2000 0 -2000 0 0
-2000z m2392 985 c32 -99 60 -188 64 -197 5 -17 -34 -18 -726 -18 -582 0 -731
3 -727 13 2 6 30 91 61 187 31 96 59 181 61 188 4 10 130 12 607 10 l602 -3
58 -180z m533 -45 c254 -780 296 -913 288 -920 -19 -18 -316 -230 -322 -230
-4 0 -67 183 -140 408 -73 224 -173 530 -222 680 -49 151 -89 278 -89 283 0 6
84 8 206 7 l206 -3 73 -225z m-1545 -273 c0 -8 -11 -45 -24 -83 -13 -38 -113
-343 -221 -679 -109 -335 -199 -611 -200 -613 -4 -4 -323 227 -330 239 -3 4
77 261 178 571 l183 563 159 5 c88 3 181 7 208 8 33 1 47 -2 47 -11z m652
-172 c32 -99 61 -188 64 -197 5 -17 -17 -18 -366 -18 -302 0 -371 2 -367 13 3
7 30 92 61 188 31 95 59 180 61 186 3 10 63 12 247 10 l242 -2 58 -180z m534
-45 c40 -124 74 -228 74 -231 0 -8 -317 -239 -329 -239 -5 0 -11 8 -14 18 -2
9 -53 163 -111 341 -58 178 -106 328 -106 333 0 4 93 7 206 6 l205 -3 75 -225z
m-832 -292 c-31 -102 -217 -674 -220 -677 -2 -2 -76 50 -166 115 -90 65 -165
119 -166 120 -3 2 116 382 138 440 l10 24 205 0 206 0 -7 -22z m1006 -243 c35
-107 62 -196 60 -198 -48 -36 -375 -270 -384 -273 -12 -5 -331 222 -331 236 0
8 574 430 585 430 3 0 35 -88 70 -195z m628 -390 c-32 -31 -943 -688 -955
-689 -16 -1 -334 226 -330 236 1 3 265 198 587 432 l584 425 64 -196 c53 -162
61 -198 50 -208z m-1388 101 c383 -277 345 -245 324 -266 -11 -10 -85 -65
-166 -124 l-147 -105 -188 135 c-103 75 -192 139 -196 144 -12 11 115 400 128
392 5 -3 116 -82 245 -176z m-353 -352 c263 -191 524 -380 580 -421 57 -41
105 -79 108 -83 5 -9 -37 -42 -232 -183 l-91 -66 -184 132 c-441 319 -774 560
-781 567 -7 6 112 400 120 400 2 0 218 -156 480 -346z"/>
</g>
</svg>
