<?xml version="1.0" standalone="no"?>
<!DOCTYPE svg PUBLIC "-//W3C//DTD SVG 20010904//EN"
 "http://www.w3.org/TR/2001/REC-SVG-20010904/DTD/svg10.dtd">
<svg version="1.0" xmlns="http://www.w3.org/2000/svg"
 width="310.000000pt" height="163.000000pt" viewBox="0 0 310.000000 163.000000"
 preserveAspectRatio="xMidYMid meet">

<g transform="translate(0.000000,163.000000) scale(0.100000,-0.100000)"
fill="#000000" stroke="none">
<path d="M0 815 l0 -815 1550 0 1550 0 0 815 0 815 -1550 0 -1550 0 0 -815z
m964 173 c3 -13 6 -27 6 -33 0 -6 -43 -10 -110 -10 -67 0 -110 4 -110 10 0 6
3 20 6 33 6 21 11 22 104 22 93 0 98 -1 104 -22z m100 -68 l28 -90 -23 -19
c-13 -11 -27 -17 -31 -13 -3 4 -18 48 -33 97 -15 50 -30 96 -32 103 -4 8 6 12
29 12 l35 0 27 -90z m-290 -92 c-18 -55 -36 -103 -39 -106 -2 -3 -15 2 -29 11
l-24 16 24 78 c14 43 27 84 29 91 2 6 20 12 39 12 l35 0 -35 -102z m135 72
l10 -30 -59 0 -59 0 10 30 c10 26 16 30 49 30 33 0 39 -4 49 -30z m81 -5 c11
-32 10 -37 -12 -55 -27 -22 -31 -19 -51 43 l-16 47 34 0 c29 0 35 -4 45 -35z
m416 -90 l31 -125 -33 0 c-30 0 -34 3 -34 25 0 21 -5 25 -29 25 -22 0 -30 -6
-35 -25 -5 -20 -13 -25 -36 -25 -17 0 -30 3 -30 6 0 5 28 119 51 207 9 34 12
37 47 37 l38 0 30 -125z m186 108 c25 -22 24 -84 -2 -108 -19 -17 -19 -18 5
-66 14 -27 25 -51 25 -54 0 -3 -13 -5 -30 -5 -25 0 -33 7 -54 48 l-25 47 -1
-47 c0 -47 -1 -48 -30 -48 l-30 0 0 125 0 125 62 0 c43 0 67 -5 80 -17z m118
-25 l1 -43 25 43 c21 34 32 42 55 42 16 0 29 -2 29 -5 0 -3 -14 -27 -31 -55
l-31 -50 36 -65 c20 -36 36 -68 36 -70 0 -3 -15 -5 -33 -5 -30 0 -36 5 -52 40
-10 22 -22 40 -27 40 -4 0 -8 -18 -8 -40 0 -38 -2 -40 -30 -40 l-30 0 0 125 0
125 30 0 c29 0 30 -2 30 -42z m200 -3 c0 -38 3 -45 20 -45 17 0 20 7 20 45 0
43 1 45 30 45 l30 0 0 -125 0 -125 -30 0 c-30 0 -30 1 -30 55 0 48 -2 55 -20
55 -18 0 -20 -7 -20 -55 0 -54 0 -55 -30 -55 l-30 0 0 125 0 125 30 0 c29 0
30 -2 30 -45z m274 -62 c15 -60 29 -116 32 -126 5 -16 1 -18 -28 -15 -25 2
-34 8 -36 26 -3 17 -10 22 -32 22 -22 0 -29 -5 -32 -22 -2 -18 -11 -24 -36
-26 -29 -3 -33 -1 -28 15 3 10 17 66 32 126 l26 107 38 0 38 0 26 -107z m145
57 c6 -28 11 -60 11 -71 0 -40 18 -8 24 43 9 72 16 80 62 76 l39 -3 3 -122 3
-123 -31 0 -30 0 -1 88 -1 87 -14 -65 c-24 -112 -23 -110 -47 -110 -21 0 -25
8 -39 73 l-16 72 -1 -72 -1 -73 -30 0 -30 0 0 125 0 125 44 0 44 0 11 -50z
m-1485 -84 l-17 -55 -28 20 c-25 18 -26 22 -17 53 9 29 17 36 42 38 17 2 32 2
34 1 2 0 -4 -26 -14 -57z m174 14 c10 -27 8 -31 -18 -50 -34 -24 -35 -24 -64
-3 l-23 17 41 33 c23 17 44 32 48 32 3 1 11 -12 16 -29z m90 -29 c10 -29 9
-31 -65 -85 -73 -53 -77 -54 -100 -39 -13 9 -22 20 -21 24 3 9 159 127 170
128 3 1 11 -12 16 -28z m-198 -22 l43 -31 -24 -19 c-30 -23 -28 -23 -62 4 -23
18 -27 27 -22 50 4 15 11 27 15 27 4 0 26 -14 50 -31z m-52 -55 c42 -32 81
-61 86 -65 11 -10 -20 -38 -42 -39 -14 0 -152 98 -152 108 1 20 14 52 21 52 5
0 44 -25 87 -56z"/>
<path d="M1331 854 c-1 -12 -4 -36 -7 -54 -6 -28 -4 -32 12 -28 20 4 22 38 4
82 l-9 21 0 -21z"/>
<path d="M1510 857 c0 -31 3 -34 21 -30 26 7 23 56 -3 61 -14 3 -18 -4 -18
-31z"/>
<path d="M2110 833 c0 -10 -3 -28 -6 -40 -5 -19 -2 -23 16 -23 18 0 21 4 16
23 -3 12 -6 30 -6 40 0 9 -4 17 -10 17 -5 0 -10 -8 -10 -17z"/>
</g>
</svg>
